<mxfile host="www.draw.io" modified="2019-12-16T12:23:25.773Z" agent="Mozilla/5.0 (Windows NT 6.1; Win64; x64; rv:71.0) Gecko/20100101 Firefox/71.0" etag="PBOfyipQa0G39ozhKg7-" version="12.4.2" type="github" pages="2">
  <diagram id="dZ5ucQ12eXOL0Q1RCAGH" name="Intro">
    <mxGraphModel dx="1185" dy="741" grid="1" gridSize="10" guides="1" tooltips="1" connect="1" arrows="1" fold="1" page="1" pageScale="1" pageWidth="827" pageHeight="1169" math="0" shadow="0">
      <root>
        <mxCell id="G5HngwGxli_PDF_6RET9-0"/>
        <mxCell id="G5HngwGxli_PDF_6RET9-1" parent="G5HngwGxli_PDF_6RET9-0"/>
        <mxCell id="v7XrDI1VZkZkI78bFoFn-0" value="" style="endArrow=classic;html=1;" edge="1" parent="G5HngwGxli_PDF_6RET9-1">
          <mxGeometry width="50" height="50" relative="1" as="geometry">
            <mxPoint x="39.69" y="280" as="sourcePoint"/>
            <mxPoint x="39.69" y="80" as="targetPoint"/>
          </mxGeometry>
        </mxCell>
        <mxCell id="v7XrDI1VZkZkI78bFoFn-1" value="" style="endArrow=classic;html=1;" edge="1" parent="G5HngwGxli_PDF_6RET9-1">
          <mxGeometry width="50" height="50" relative="1" as="geometry">
            <mxPoint x="39.69" y="280" as="sourcePoint"/>
            <mxPoint x="239.69" y="280" as="targetPoint"/>
          </mxGeometry>
        </mxCell>
        <mxCell id="v7XrDI1VZkZkI78bFoFn-2" value="&lt;div&gt;Time&lt;/div&gt;" style="text;html=1;strokeColor=none;fillColor=none;align=center;verticalAlign=middle;whiteSpace=wrap;rounded=0;" vertex="1" parent="G5HngwGxli_PDF_6RET9-1">
          <mxGeometry x="119.69" y="290" width="40" height="20" as="geometry"/>
        </mxCell>
        <mxCell id="2Xl_oozbq6DhutqkkMXz-0" value="Space" style="text;html=1;strokeColor=none;fillColor=none;align=center;verticalAlign=middle;whiteSpace=wrap;rounded=0;rotation=-90;" vertex="1" parent="G5HngwGxli_PDF_6RET9-1">
          <mxGeometry x="-0.3100000000000023" y="170" width="40" height="20" as="geometry"/>
        </mxCell>
        <mxCell id="2Xl_oozbq6DhutqkkMXz-1" value="" style="endArrow=none;html=1;" edge="1" parent="G5HngwGxli_PDF_6RET9-1">
          <mxGeometry width="50" height="50" relative="1" as="geometry">
            <mxPoint x="39.69" y="240" as="sourcePoint"/>
            <mxPoint x="219.69" y="240" as="targetPoint"/>
          </mxGeometry>
        </mxCell>
        <mxCell id="2Xl_oozbq6DhutqkkMXz-2" value="" style="endArrow=classic;html=1;" edge="1" parent="G5HngwGxli_PDF_6RET9-1">
          <mxGeometry width="50" height="50" relative="1" as="geometry">
            <mxPoint x="320" y="280" as="sourcePoint"/>
            <mxPoint x="320" y="80" as="targetPoint"/>
          </mxGeometry>
        </mxCell>
        <mxCell id="2Xl_oozbq6DhutqkkMXz-3" value="" style="endArrow=classic;html=1;" edge="1" parent="G5HngwGxli_PDF_6RET9-1">
          <mxGeometry width="50" height="50" relative="1" as="geometry">
            <mxPoint x="320" y="280" as="sourcePoint"/>
            <mxPoint x="520" y="280" as="targetPoint"/>
          </mxGeometry>
        </mxCell>
        <mxCell id="2Xl_oozbq6DhutqkkMXz-4" value="&lt;div&gt;Time&lt;/div&gt;" style="text;html=1;strokeColor=none;fillColor=none;align=center;verticalAlign=middle;whiteSpace=wrap;rounded=0;" vertex="1" parent="G5HngwGxli_PDF_6RET9-1">
          <mxGeometry x="400" y="290" width="40" height="20" as="geometry"/>
        </mxCell>
        <mxCell id="2Xl_oozbq6DhutqkkMXz-5" value="Space" style="text;html=1;strokeColor=none;fillColor=none;align=center;verticalAlign=middle;whiteSpace=wrap;rounded=0;rotation=-90;" vertex="1" parent="G5HngwGxli_PDF_6RET9-1">
          <mxGeometry x="280" y="170" width="40" height="20" as="geometry"/>
        </mxCell>
        <mxCell id="2Xl_oozbq6DhutqkkMXz-6" value="" style="endArrow=none;html=1;" edge="1" parent="G5HngwGxli_PDF_6RET9-1">
          <mxGeometry width="50" height="50" relative="1" as="geometry">
            <mxPoint x="320" y="240" as="sourcePoint"/>
            <mxPoint x="500" y="100" as="targetPoint"/>
          </mxGeometry>
        </mxCell>
        <mxCell id="2Xl_oozbq6DhutqkkMXz-7" value="" style="endArrow=classic;html=1;" edge="1" parent="G5HngwGxli_PDF_6RET9-1">
          <mxGeometry width="50" height="50" relative="1" as="geometry">
            <mxPoint x="600" y="280" as="sourcePoint"/>
            <mxPoint x="600" y="80" as="targetPoint"/>
          </mxGeometry>
        </mxCell>
        <mxCell id="2Xl_oozbq6DhutqkkMXz-8" value="" style="endArrow=classic;html=1;" edge="1" parent="G5HngwGxli_PDF_6RET9-1">
          <mxGeometry width="50" height="50" relative="1" as="geometry">
            <mxPoint x="600" y="280" as="sourcePoint"/>
            <mxPoint x="800" y="280" as="targetPoint"/>
          </mxGeometry>
        </mxCell>
        <mxCell id="2Xl_oozbq6DhutqkkMXz-9" value="&lt;div&gt;Time&lt;/div&gt;" style="text;html=1;strokeColor=none;fillColor=none;align=center;verticalAlign=middle;whiteSpace=wrap;rounded=0;" vertex="1" parent="G5HngwGxli_PDF_6RET9-1">
          <mxGeometry x="680" y="290" width="40" height="20" as="geometry"/>
        </mxCell>
        <mxCell id="2Xl_oozbq6DhutqkkMXz-10" value="Space" style="text;html=1;strokeColor=none;fillColor=none;align=center;verticalAlign=middle;whiteSpace=wrap;rounded=0;rotation=-90;" vertex="1" parent="G5HngwGxli_PDF_6RET9-1">
          <mxGeometry x="560" y="170" width="40" height="20" as="geometry"/>
        </mxCell>
        <mxCell id="2Xl_oozbq6DhutqkkMXz-11" value="" style="endArrow=none;html=1;rounded=1;jumpStyle=none;" edge="1" parent="G5HngwGxli_PDF_6RET9-1">
          <mxGeometry width="50" height="50" relative="1" as="geometry">
            <mxPoint x="600" y="240" as="sourcePoint"/>
            <mxPoint x="760" y="270" as="targetPoint"/>
            <Array as="points">
              <mxPoint x="650" y="180"/>
            </Array>
          </mxGeometry>
        </mxCell>
        <mxCell id="2Xl_oozbq6DhutqkkMXz-12" value="" style="endArrow=none;html=1;rounded=1;jumpSize=6;" edge="1" parent="G5HngwGxli_PDF_6RET9-1">
          <mxGeometry width="50" height="50" relative="1" as="geometry">
            <mxPoint x="600" y="160" as="sourcePoint"/>
            <mxPoint x="780" y="80" as="targetPoint"/>
            <Array as="points">
              <mxPoint x="650" y="180"/>
            </Array>
          </mxGeometry>
        </mxCell>
        <mxCell id="2Xl_oozbq6DhutqkkMXz-13" value="&lt;font style=&quot;font-size: 14px&quot;&gt;Stationary Object&lt;/font&gt;" style="text;html=1;strokeColor=none;fillColor=none;align=center;verticalAlign=middle;whiteSpace=wrap;rounded=0;" vertex="1" parent="G5HngwGxli_PDF_6RET9-1">
          <mxGeometry x="39.769999999999996" y="40" width="200.31" height="40" as="geometry"/>
        </mxCell>
        <mxCell id="2Xl_oozbq6DhutqkkMXz-14" value="&lt;font style=&quot;font-size: 14px&quot;&gt;Moving Object&lt;/font&gt;" style="text;html=1;strokeColor=none;fillColor=none;align=center;verticalAlign=middle;whiteSpace=wrap;rounded=0;" vertex="1" parent="G5HngwGxli_PDF_6RET9-1">
          <mxGeometry x="319.91999999999996" y="40" width="200.31" height="40" as="geometry"/>
        </mxCell>
        <mxCell id="2Xl_oozbq6DhutqkkMXz-15" value="&lt;font style=&quot;font-size: 14px&quot;&gt;Colliding Objects&lt;/font&gt;" style="text;html=1;strokeColor=none;fillColor=none;align=center;verticalAlign=middle;whiteSpace=wrap;rounded=0;" vertex="1" parent="G5HngwGxli_PDF_6RET9-1">
          <mxGeometry x="599.92" y="40" width="200.31" height="40" as="geometry"/>
        </mxCell>
      </root>
    </mxGraphModel>
  </diagram>
  <diagram id="CTPnc-s7_SBKOiiTPSJ4" name="Contexts">
    <mxGraphModel dx="981" dy="613" grid="1" gridSize="10" guides="1" tooltips="1" connect="1" arrows="1" fold="1" page="1" pageScale="1" pageWidth="827" pageHeight="1169" math="0" shadow="0">
      <root>
        <mxCell id="0"/>
        <mxCell id="1" parent="0"/>
        <mxCell id="_ikLtdTQowqd6KnAhVyy-19" value="&lt;font style=&quot;font-size: 14px&quot; face=&quot;Helvetica&quot;&gt;&lt;i&gt;Ingest&lt;/i&gt;&lt;/font&gt;" style="rounded=0;whiteSpace=wrap;html=1;fillColor=#f5f5f5;strokeColor=none;fontColor=#333333;rotation=-90;" vertex="1" parent="1">
          <mxGeometry x="120" y="120" width="200" height="40" as="geometry"/>
        </mxCell>
        <mxCell id="_ikLtdTQowqd6KnAhVyy-1" value="" style="endArrow=classic;html=1;" edge="1" parent="1">
          <mxGeometry width="50" height="50" relative="1" as="geometry">
            <mxPoint x="120" y="240" as="sourcePoint"/>
            <mxPoint x="120" y="40" as="targetPoint"/>
          </mxGeometry>
        </mxCell>
        <mxCell id="_ikLtdTQowqd6KnAhVyy-2" value="" style="endArrow=classic;html=1;" edge="1" parent="1">
          <mxGeometry width="50" height="50" relative="1" as="geometry">
            <mxPoint x="120" y="240" as="sourcePoint"/>
            <mxPoint x="440" y="240" as="targetPoint"/>
          </mxGeometry>
        </mxCell>
        <mxCell id="_ikLtdTQowqd6KnAhVyy-3" value="Producer" style="text;html=1;strokeColor=none;fillColor=none;align=center;verticalAlign=middle;whiteSpace=wrap;rounded=0;" vertex="1" parent="1">
          <mxGeometry x="50" y="210" width="60" height="20" as="geometry"/>
        </mxCell>
        <mxCell id="_ikLtdTQowqd6KnAhVyy-4" value="&lt;div&gt;Archive&lt;/div&gt;" style="text;html=1;align=center;verticalAlign=middle;resizable=0;points=[];;autosize=1;" vertex="1" parent="1">
          <mxGeometry x="60" y="130" width="50" height="20" as="geometry"/>
        </mxCell>
        <mxCell id="_ikLtdTQowqd6KnAhVyy-5" value="Consumer" style="text;html=1;align=center;verticalAlign=middle;resizable=0;points=[];;autosize=1;" vertex="1" parent="1">
          <mxGeometry x="40" y="50" width="70" height="20" as="geometry"/>
        </mxCell>
        <mxCell id="_ikLtdTQowqd6KnAhVyy-6" value="" style="endArrow=none;html=1;startArrow=oval;startFill=1;" edge="1" parent="1">
          <mxGeometry width="50" height="50" relative="1" as="geometry">
            <mxPoint x="140" y="220" as="sourcePoint"/>
            <mxPoint x="200" y="220" as="targetPoint"/>
          </mxGeometry>
        </mxCell>
        <mxCell id="_ikLtdTQowqd6KnAhVyy-7" value="" style="endArrow=none;html=1;" edge="1" parent="1">
          <mxGeometry width="50" height="50" relative="1" as="geometry">
            <mxPoint x="200" y="220" as="sourcePoint"/>
            <mxPoint x="240" y="140" as="targetPoint"/>
          </mxGeometry>
        </mxCell>
        <mxCell id="_ikLtdTQowqd6KnAhVyy-8" value="" style="endArrow=none;html=1;" edge="1" parent="1">
          <mxGeometry width="50" height="50" relative="1" as="geometry">
            <mxPoint x="240" y="140" as="sourcePoint"/>
            <mxPoint x="410" y="140" as="targetPoint"/>
          </mxGeometry>
        </mxCell>
        <mxCell id="_ikLtdTQowqd6KnAhVyy-9" value="" style="endArrow=oval;html=1;endFill=1;endSize=6;" edge="1" parent="1">
          <mxGeometry width="50" height="50" relative="1" as="geometry">
            <mxPoint x="360" y="140" as="sourcePoint"/>
            <mxPoint x="400" y="60" as="targetPoint"/>
          </mxGeometry>
        </mxCell>
        <mxCell id="_ikLtdTQowqd6KnAhVyy-12" value="SIP" style="text;html=1;strokeColor=none;fillColor=none;align=center;verticalAlign=middle;whiteSpace=wrap;rounded=0;" vertex="1" parent="1">
          <mxGeometry x="200" y="204" width="40" height="20" as="geometry"/>
        </mxCell>
        <mxCell id="_ikLtdTQowqd6KnAhVyy-13" value="&lt;div&gt;AIP&lt;/div&gt;" style="text;html=1;strokeColor=none;fillColor=none;align=center;verticalAlign=middle;whiteSpace=wrap;rounded=0;" vertex="1" parent="1">
          <mxGeometry x="230" y="142" width="40" height="20" as="geometry"/>
        </mxCell>
        <mxCell id="_ikLtdTQowqd6KnAhVyy-15" value="DIP" style="text;html=1;strokeColor=none;fillColor=none;align=center;verticalAlign=middle;whiteSpace=wrap;rounded=0;" vertex="1" parent="1">
          <mxGeometry x="360" y="123" width="40" height="20" as="geometry"/>
        </mxCell>
        <mxCell id="_ikLtdTQowqd6KnAhVyy-20" value="" style="endArrow=none;dashed=1;html=1;" edge="1" parent="1">
          <mxGeometry width="50" height="50" relative="1" as="geometry">
            <mxPoint x="440" y="140" as="sourcePoint"/>
            <mxPoint x="410" y="140" as="targetPoint"/>
          </mxGeometry>
        </mxCell>
        <mxCell id="_ikLtdTQowqd6KnAhVyy-23" value="&lt;div&gt;Time&lt;/div&gt;" style="text;html=1;strokeColor=none;fillColor=none;align=center;verticalAlign=middle;whiteSpace=wrap;rounded=0;" vertex="1" parent="1">
          <mxGeometry x="260" y="250" width="40" height="20" as="geometry"/>
        </mxCell>
      </root>
    </mxGraphModel>
  </diagram>
</mxfile>
